<svg width="600" height="400" viewBox="0 0 600 400" fill="none" xmlns="http://www.w3.org/2000/svg">
  <!-- Blue background with gradient -->
  <rect width="600" height="400" fill="url(#paint0_linear)"/>
  
  <!-- Stylish elements -->
  <circle cx="100" cy="100" r="50" fill="#f97316" fill-opacity="0.2"/>
  <circle cx="500" cy="300" r="70" fill="#f97316" fill-opacity="0.1"/>
  <circle cx="300" cy="150" r="100" fill="#2563eb" fill-opacity="0.1"/>
  
  <!-- Car outlines -->
  <path d="M400 250C400 250 380 230 340 230C300 230 280 250 240 250C200 250 180 230 180 230" stroke="#2563eb" stroke-width="3"/>
  <path d="M420 260C420 260 390 220 340 220C290 220 260 260 210 260C160 260 130 220 130 220" stroke="#f97316" stroke-width="3"/>
  <path d="M450 270C450 270 410 210 340 210C270 210 230 270 160 270C90 270 50 210 50 210" stroke="#2563eb" stroke-width="3"/>
  
  <defs>
    <linearGradient id="paint0_linear" x1="300" y1="0" x2="300" y2="400" gradientUnits="userSpaceOnUse">
      <stop offset="0" stop-color="#1e40af"/>
      <stop offset="1" stop-color="#0f172a"/>
    </linearGradient>
  </defs>
</svg>
