<?xml version="1.0" encoding="UTF-8"?>
<svg width="800" height="500" viewBox="0 0 800 500" fill="none" xmlns="http://www.w3.org/2000/svg">
  <g id="luxury_car">
    <!-- Car Body -->
    <path d="M683.021 286.841C679.219 274.434 669.208 252.989 648.188 231.969C620.556 204.337 591.085 202.116 566.099 200.334C559.123 199.762 552.686 199.235 546.987 198.193C507.02 191.799 479.959 165.596 471.137 154.631C462.315 143.667 439.111 116.605 408.863 116.605H350.137C320.028 116.605 300.445 137.991 284.383 158.152C274.174 170.268 258.112 195.19 236.355 205.278C213.869 215.728 147.026 240.791 140.631 250.145C134.236 259.5 117.296 286.841 117.296 286.841L116.02 310.045H683.98L683.021 286.841Z" fill="#0D47A1"/>
    
    <!-- Car Windows -->
    <path d="M350.137 116.605C351.234 141.667 355.732 167.819 388.241 168.778C420.75 169.736 546.987 168.778 546.987 168.778C546.987 168.778 529.088 179.091 501.846 181.313C474.604 183.534 440.391 182.575 415.257 184.797C390.124 187.019 372.702 187.656 352.363 173.314C332.023 158.973 321.148 148.236 321.148 148.236C321.148 148.236 322.548 127.896 333.38 120.066C341.396 114.384 350.137 116.605 350.137 116.605Z" fill="#90CAF9"/>
    
    <!-- Wheels -->
    <circle cx="200" cy="310.045" r="45" fill="#263238"/>
    <circle cx="200" cy="310.045" r="25" fill="#546E7A"/>
    <circle cx="600" cy="310.045" r="45" fill="#263238"/>
    <circle cx="600" cy="310.045" r="25" fill="#546E7A"/>
    
    <!-- Headlights -->
    <path d="M683.021 286.841C682.979 275.055 679.219 263.583 674.199 257.976C669.208 252.407 664.85 247.093 659.02 247.093C653.191 247.093 651.207 264.671 649.147 271.318C647.087 277.964 645.329 286.841 645.329 286.841H683.021Z" fill="#FFECB3"/>
    <path d="M117.296 286.841C117.338 275.055 121.098 263.583 126.118 257.976C131.108 252.407 135.467 247.093 141.297 247.093C147.126 247.093 149.11 264.671 151.17 271.318C153.23 277.964 154.988 286.841 154.988 286.841H117.296Z" fill="#FFECB3"/>
    
    <!-- Doors and Details -->
    <path d="M236.355 205.278C258.112 195.19 274.174 170.268 284.383 158.152C300.445 137.991 320.028 116.605 350.137 116.605H408.863C439.111 116.605 462.315 143.667 471.137 154.631C479.959 165.596 507.02 191.799 546.987 198.193C552.686 199.235 559.123 199.762 566.099 200.334C563.145 215.728 554.85 245.917 550.168 249.186C533.227 259.5 431.257 261.404 413.035 261.404C394.814 261.404 369.681 264.901 334.339 275.214C299.062 285.5 273.93 286.841 250.697 286.841C227.465 286.841 213.869 261.404 213.869 261.404C213.869 261.404 218.133 213.869 236.355 205.278Z" fill="#1565C0"/>
    
    <!-- Windows -->
    <path d="M297.979 157.19C311.575 141.667 331.913 133.545 350.137 133.545H408.863C436.125 133.545 458.155 167.827 471.137 173.314C456.542 183.627 431.89 215.406 384.939 220.256C337.988 225.107 297.979 219.298 297.979 219.298C297.979 219.298 280.718 176.535 297.979 157.19Z" fill="#90CAF9"/>
    
    <!-- Reflections and Highlights -->
    <path d="M350.137 133.545C350.137 133.545 359.492 157.19 373.128 165.596C386.764 174.002 400.5 174.002 414.137 174.002C427.774 174.002 470.178 157.19 478.583 148.785C487.048 140.32 475.083 133.545 465.729 133.545H350.137Z" fill="#E3F2FD" fill-opacity="0.5"/>
    
    <!-- Car Bottom and Shadow -->
    <ellipse cx="400" cy="350" rx="320" ry="20" fill="black" fill-opacity="0.2"/>
    
    <!-- Grill and Front Details -->
    <path d="M683.98 310.045H116.02C116.02 310.045 123.153 322.334 177.274 325.599C231.395 328.865 325.83 328.865 400 328.865C474.17 328.865 558.605 328.865 622.726 325.599C686.847 322.334 683.98 310.045 683.98 310.045Z" fill="#1A237E"/>
    
    <!-- Windshield Wipers -->
    <path d="M369.681 181.313C369.681 181.313 375.118 183.534 382.472 184.797C389.825 186.019 400.5 186.019 403.1 184.797C405.7 183.534 414.137 174.002 414.137 174.002C414.137 174.002 388.866 172.84 369.681 181.313Z" fill="#263238" fill-opacity="0.3"/>
    
    <!-- Front Bumper Detail -->
    <path d="M254.8 275.691C254.8 275.691 302.629 273.469 335.138 268.619C367.646 263.768 403.1 264.726 428.234 267.661C453.368 270.595 525.886 270.595 559.712 271.554C593.538 272.512 626.047 277.361 638.725 286.841H645.329C645.329 286.841 635.107 278.32 601.281 275.691C567.455 273.061 504.305 268.619 469.838 267.952C435.37 267.285 386.764 264.726 345.451 268.619C304.139 272.512 270.313 280.5 254.8 275.691Z" fill="#0D47A1"/>
    
    <!-- License Plate -->
    <rect x="380" y="316" width="40" height="15" rx="2" fill="white"/>
    <text x="400" y="327" text-anchor="middle" font-family="Arial" font-size="10" fill="#333">LX2025</text>
    
    <!-- Reflections on Body -->
    <path d="M566.099 200.334C591.085 202.116 620.556 204.337 648.188 231.969C620.556 210.949 590.126 207.779 566.099 200.334Z" fill="#0A2E65"/>
    <path d="M284.383 158.152C274.174 170.268 258.112 195.19 236.355 205.278C258.112 188.338 273.33 173.314 284.383 158.152Z" fill="#0A2E65"/>
  </g>
</svg>