<?xml version="1.0" encoding="UTF-8"?>
<svg width="1440" height="800" viewBox="0 0 1440 800" fill="none" xmlns="http://www.w3.org/2000/svg">
  <g opacity="0.5">
    <path d="M1440 0H0V800H1440V0Z" fill="url(#paint0_radial)"/>
    <path d="M-188.5 -299.5L-137 -349.5L63 -149.5L-37 -49.5L-188.5 -299.5Z" stroke="white" stroke-width="0.5"/>
    <path d="M1163 780.5L1264 681.5L1314 731.5L1213 831.5L1163 780.5Z" stroke="white" stroke-width="0.5"/>
    <path d="M216 780.5L317 681.5L367 731.5L266 831.5L216 780.5Z" stroke="white" stroke-width="0.5"/>
    <path d="M1289 121.5L1390 22.5L1440 72.5L1339 172.5L1289 121.5Z" stroke="white" stroke-width="0.5"/>
    <path d="M145.5 525.5L37 635.5L-13.5 585.5L95 474.5L145.5 525.5Z" stroke="white" stroke-width="0.5"/>
    <path d="M905 304.5L1013.5 195.5L1064 245.5L955.5 355.5L905 304.5Z" stroke="white" stroke-width="0.5"/>
    <path d="M905 714.5L1013.5 605.5L1064 655.5L955.5 765.5L905 714.5Z" stroke="white" stroke-width="0.5"/>
    <path d="M905 -105.5L1013.5 -214.5L1064 -164.5L955.5 -54.5L905 -105.5Z" stroke="white" stroke-width="0.5"/>
    <path d="M365 444.5L473.5 335.5L524 385.5L415.5 495.5L365 444.5Z" stroke="white" stroke-width="0.5"/>
    <path d="M365 854.5L473.5 745.5L524 795.5L415.5 905.5L365 854.5Z" stroke="white" stroke-width="0.5"/>
    <path d="M365 34.5L473.5 -74.5L524 -24.5L415.5 85.5L365 34.5Z" stroke="white" stroke-width="0.5"/>
    <path d="M-182 145.5L-74 36.5L-23.5 86.5L-132 196.5L-182 145.5Z" stroke="white" stroke-width="0.5"/>
    <path d="M-182 555.5L-74 446.5L-23.5 496.5L-132 606.5L-182 555.5Z" stroke="white" stroke-width="0.5"/>
    <path d="M-182 -264.5L-74 -373.5L-23.5 -323.5L-132 -213.5L-182 -264.5Z" stroke="white" stroke-width="0.5"/>
    <path d="M621 114.5L729 5.5L779.5 55.5L671 165.5L621 114.5Z" stroke="white" stroke-width="0.5"/>
    <path d="M621 524.5L729 415.5L779.5 465.5L671 575.5L621 524.5Z" stroke="white" stroke-width="0.5"/>
    <path d="M621 -295.5L729 -404.5L779.5 -354.5L671 -244.5L621 -295.5Z" stroke="white" stroke-width="0.5"/>
    <path d="M1198 448.5L1307 340L1357.5 390L1248.5 500L1198 448.5Z" stroke="white" stroke-width="0.5"/>
    <path d="M1198 858.5L1307 750L1357.5 800L1248.5 910L1198 858.5Z" stroke="white" stroke-width="0.5"/>
    <path d="M1198 38.5L1307 -70L1357.5 -20L1248.5 90L1198 38.5Z" stroke="white" stroke-width="0.5"/>
    <path d="M-98 306.5L-198 206.5L-148 156.5L-48 256.5L-98 306.5Z" stroke="white" stroke-width="0.5"/>
    <path d="M-98 716.5L-198 616.5L-148 566.5L-48 666.5L-98 716.5Z" stroke="white" stroke-width="0.5"/>
    <path d="M-98 -103.5L-198 -203.5L-148 -253.5L-48 -153.5L-98 -103.5Z" stroke="white" stroke-width="0.5"/>
    <path d="M1385 640.5L1285 540.5L1335 490.5L1435 590.5L1385 640.5Z" stroke="white" stroke-width="0.5"/>
    <path d="M1385 1050.5L1285 950.5L1335 900.5L1435 1000.5L1385 1050.5Z" stroke="white" stroke-width="0.5"/>
    <path d="M1385 230.5L1285 130.5L1335 80.5L1435 180.5L1385 230.5Z" stroke="white" stroke-width="0.5"/>
    <path d="M125 130.5L25 30.5L75 -19.5L175 80.5L125 130.5Z" stroke="white" stroke-width="0.5"/>
    <path d="M125 540.5L25 440.5L75 390.5L175 490.5L125 540.5Z" stroke="white" stroke-width="0.5"/>
    <path d="M125 -279.5L25 -379.5L75 -429.5L175 -329.5L125 -279.5Z" stroke="white" stroke-width="0.5"/>
    <path d="M852 -97.5L752 -197.5L802 -247.5L902 -147.5L852 -97.5Z" stroke="white" stroke-width="0.5"/>
    <path d="M852 312.5L752 212.5L802 162.5L902 262.5L852 312.5Z" stroke="white" stroke-width="0.5"/>
    <path d="M852 722.5L752 622.5L802 572.5L902 672.5L852 722.5Z" stroke="white" stroke-width="0.5"/>
    <path d="M615 309.5L515 209.5L565 159.5L665 259.5L615 309.5Z" stroke="white" stroke-width="0.5"/>
    <path d="M615 719.5L515 619.5L565 569.5L665 669.5L615 719.5Z" stroke="white" stroke-width="0.5"/>
    <path d="M615 -100.5L515 -200.5L565 -250.5L665 -150.5L615 -100.5Z" stroke="white" stroke-width="0.5"/>
    <path d="M311 57.5L211 -42.5L261 -92.5L361 7.5L311 57.5Z" stroke="white" stroke-width="0.5"/>
    <path d="M311 467.5L211 367.5L261 317.5L361 417.5L311 467.5Z" stroke="white" stroke-width="0.5"/>
    <path d="M311 877.5L211 777.5L261 727.5L361 827.5L311 877.5Z" stroke="white" stroke-width="0.5"/>
    <circle cx="49" cy="152" r="10" fill="white" fill-opacity="0.1"/>
    <circle cx="283" cy="52" r="10" fill="white" fill-opacity="0.1"/>
    <circle cx="591" cy="211" r="10" fill="white" fill-opacity="0.1"/>
    <circle cx="841" cy="301" r="10" fill="white" fill-opacity="0.1"/>
    <circle cx="1243" cy="603" r="10" fill="white" fill-opacity="0.1"/>
    <circle cx="946" cy="752" r="10" fill="white" fill-opacity="0.1"/>
    <circle cx="593" cy="502" r="10" fill="white" fill-opacity="0.1"/>
    <circle cx="236" cy="498" r="10" fill="white" fill-opacity="0.1"/>
    <circle cx="146" cy="700" r="10" fill="white" fill-opacity="0.1"/>
    <circle cx="495" cy="700" r="10" fill="white" fill-opacity="0.1"/>
    <circle cx="800" cy="531" r="10" fill="white" fill-opacity="0.1"/>
    <circle cx="1146" cy="427" r="10" fill="white" fill-opacity="0.1"/>
    <circle cx="1398" cy="227" r="10" fill="white" fill-opacity="0.1"/>
    <circle cx="1326" cy="378" r="10" fill="white" fill-opacity="0.1"/>
    <circle cx="1089" cy="152" r="10" fill="white" fill-opacity="0.1"/>
  </g>
  <defs>
    <radialGradient id="paint0_radial" cx="0" cy="0" r="1" gradientUnits="userSpaceOnUse" gradientTransform="translate(720 400) rotate(90) scale(400 720)">
      <stop stop-color="white" stop-opacity="0.1"/>
      <stop offset="1" stop-color="white" stop-opacity="0"/>
    </radialGradient>
  </defs>
</svg>